<svg xmlns="http://www.w3.org/2000/svg" xmlns:xlink="http://www.w3.org/1999/xlink" width="383.249" height="143.011" viewBox="0 0 287.437 107.258"><path stroke-width=".399" stroke-miterlimit="10" fill="none" stroke="#000" d="M38.151 19.337c0-10.48-8.495-18.976-18.976-18.976C8.695.36.199 8.856.199 19.337c0 10.48 8.495 18.976 18.976 18.976 10.48 0 18.976-8.495 18.976-18.976zm-18.976 0"/><symbol id="a"><path d="M.458.411L.374.61.369.623c0 .006.017.025.059.029.01.001.02.002.02.019 0 .012-.012.012-.015.012L.307.68.195.683c-.006 0-.018 0-.018-.02C.177.652.187.652.2.652.26.652.266.642.275.62L.393.341.182.114.169.103A.202.202 0 00.022.031C.009.03 0 .03 0 .011 0 .01 0 0 .013 0l.094.003L.219 0c.006 0 .018 0 .018.02 0 .01-.01.011-.012.011-.009.001-.04.003-.04.031 0 .016.015.032.027.045l.102.108.09.098.101-.239L.51.06C.51.052.491.035.452.031.441.03.432.029.432.012.432 0 .443 0 .447 0l.126.003L.684 0c.007 0 .019 0 .019.019 0 .012-.01.012-.018.012C.618.032.616.035.599.075.56.168.493.324.47.384c.068.07.173.189.205.217a.204.204 0 00.127.051c.013.001.022.001.022.02 0 .001 0 .011-.013.011L.717.68.606.683C.6.683.587.683.587.663c0-.007.005-.01.012-.011.009-.001.04-.003.04-.031C.639.607.628.594.62.585L.458.411z"/></symbol><use xlink:href="#a" transform="matrix(9.9626 0 0 -9.9626 13.083 21.994)"/><symbol id="b"><path d="M.464.339c0 .11-.013.189-.059.259a.208.208 0 01-.173.086C0 .684 0 .411 0 .339 0 .267 0 0 .232 0s.232.267.232.339M.232.028C.186.028.125.055.105.137.091.196.091.278.091.352c0 .073 0 .149.015.204.021.079.085.1.126.1A.129.129 0 00.356.565.813.813 0 00.373.352c0-.074 0-.148-.013-.211C.34.05.272.028.232.028z"/></symbol><use xlink:href="#b" transform="matrix(6.9738 0 0 -6.9738 21.43 23.628)"/><path stroke-width=".399" stroke-miterlimit="10" fill="none" stroke="#000" d="M104.85 19.337c0-10.48-8.496-18.976-18.977-18.976-10.48 0-18.976 8.495-18.976 18.976 0 10.48 8.496 18.976 18.976 18.976 10.48 0 18.977-8.495 18.977-18.976zm-18.977 0"/><use xlink:href="#a" transform="matrix(9.9626 0 0 -9.9626 79.78 21.994)"/><symbol id="c"><path d="M.226.636c0 .027-.002.028-.03.028C.132.601.041.6 0 .6V.564c.024 0 .09 0 .145.028v-.51c0-.033 0-.046-.1-.046H.007V0l.178.004L.364 0v.036H.326c-.1 0-.1.013-.1.046v.554z"/></symbol><use xlink:href="#c" transform="matrix(6.9738 0 0 -6.9738 88.525 23.489)"/><symbol id="d"><path d="M.106.053a.053.053 0 01-.053.053A.053.053 0 010 .053C0 .024.024 0 .053 0c.029 0 .053.024.053.053z"/></symbol><use xlink:href="#d" transform="matrix(9.9626 0 0 -9.9626 137.77 19.863)"/><use xlink:href="#d" transform="matrix(9.9626 0 0 -9.9626 142.204 19.863)"/><use xlink:href="#d" transform="matrix(9.9626 0 0 -9.9626 146.628 19.863)"/><path stroke-width=".399" stroke-miterlimit="10" fill="none" stroke="#000" d="M220.542 19.337c0-10.57-8.568-19.139-19.138-19.139-10.57 0-19.139 8.569-19.139 19.139 0 10.57 8.569 19.139 19.139 19.139 10.57 0 19.138-8.569 19.138-19.139zm-19.138 0"/><use xlink:href="#a" transform="matrix(9.9626 0 0 -9.9626 189.307 21.579)"/><symbol id="e"><path d="M.443.605C.45.634.452.637.474.639l.06.001C.595.64.621.64.646.632.691.618.693.589.693.553c0-.016 0-.029-.007-.081L.684.461c0-.01.007-.015.017-.015.015 0 .017.009.019.025l.027.191c0 .014-.012.014-.03.014H.102c-.025 0-.027 0-.034-.021L.005.478C.004.474 0 .465 0 .46 0 .456.002.446.017.446.03.446.032.451.038.47c.058.16.091.17.243.17h.042C.353.64.354.639.354.63c0-.001 0-.006-.004-.021L.218.083C.209.046.206.036.101.036c-.036 0-.045 0-.045-.022C.056.011.058 0 .073 0l.086.003.086.001.09-.001L.419 0c.008 0 .023 0 .023.022 0 .014-.01.014-.041.014L.343.038C.309.041.307.045.307.057c0 .007 0 .009.004.023l.132.525z"/></symbol><use xlink:href="#e" transform="matrix(6.9738 0 0 -6.9738 197.592 23.073)"/><symbol id="f"><path d="M.636 0c.016 0 .04 0 .04.024 0 .025-.023.025-.04.025H.04c-.016 0-.04 0-.04-.024C0 0 .023 0 .04 0h.596z"/></symbol><use xlink:href="#f" transform="matrix(6.9738 0 0 -6.9738 203.823 21.497)"/><use xlink:href="#c" transform="matrix(6.9738 0 0 -6.9738 210.056 23.073)"/><path stroke-width=".399" stroke-miterlimit="10" fill="none" stroke="#000" d="M287.24 19.337c0-10.48-8.495-18.976-18.976-18.976-10.48 0-18.976 8.495-18.976 18.976 0 10.48 8.496 18.976 18.976 18.976 10.48 0 18.977-8.495 18.977-18.976zm-18.976 0"/><use xlink:href="#a" transform="matrix(9.9626 0 0 -9.9626 261.265 21.994)"/><use xlink:href="#e" transform="matrix(6.9738 0 0 -6.9738 269.55 23.488)"/><path stroke-width=".399" stroke-miterlimit="10" fill="none" stroke="#000" d="M37.68 88.4c0-10.221-8.284-18.506-18.505-18.506-10.22 0-18.506 8.285-18.506 18.505 0 10.221 8.285 18.506 18.506 18.506 10.22 0 18.506-8.285 18.506-18.506zm-18.505 0"/><symbol id="g"><path d="M.09.094c.054.058.083.083.119.114 0 .001.062.054.098.09a.474.474 0 01.117.145c0 .01-.009.01-.011.01C.406.453.403.451.398.442.368.394.347.378.323.378S.287.393.272.41C.253.433.236.453.203.453.128.453.082.36.082.339c0-.005.003-.011.012-.011.009 0 .011.005.013.011.019.046.077.047.085.047.021 0 .04-.007.063-.015C.295.356.306.356.332.356A1.501 1.501 0 00.193.225L.103.141A.479.479 0 010 .01C0 0 .01 0 .012 0c.008 0 .01.002.016.013.023.035.053.062.085.062.023 0 .033-.009.058-.038C.188.016.206 0 .235 0c.099 0 .157.127.157.154 0 .005-.004.01-.012.01C.371.164.369.158.366.151a.13.13 0 00-.12-.084C.226.067.208.073.187.08a.178.178 0 01-.07.017C.115.097.099.097.09.094z"/></symbol><use xlink:href="#g" transform="matrix(9.9626 0 0 -9.9626 15.052 89.906)"/><use xlink:href="#b" transform="matrix(6.9738 0 0 -6.9738 19.62 91.43)"/><path stroke-width=".399" stroke-miterlimit="10" fill="none" stroke="#000" d="M103.438 88.4c0-10.221-8.285-18.506-18.506-18.506-10.22 0-18.506 8.285-18.506 18.505 0 10.221 8.285 18.506 18.506 18.506 10.22 0 18.506-8.285 18.506-18.506zm-18.506 0"/><use xlink:href="#g" transform="matrix(9.9626 0 0 -9.9626 80.808 89.906)"/><use xlink:href="#c" transform="matrix(6.9738 0 0 -6.9738 85.773 91.291)"/><use xlink:href="#d" transform="matrix(9.9626 0 0 -9.9626 136.359 88.925)"/><use xlink:href="#d" transform="matrix(9.9626 0 0 -9.9626 140.792 88.925)"/><use xlink:href="#d" transform="matrix(9.9626 0 0 -9.9626 145.216 88.925)"/><path stroke-width=".399" stroke-miterlimit="10" fill="none" stroke="#000" d="M218.173 88.4c0-10.306-8.354-18.66-18.66-18.66-10.306 0-18.66 8.354-18.66 18.66 0 10.305 8.354 18.66 18.66 18.66 10.306 0 18.66-8.355 18.66-18.66zm-18.66 0"/><use xlink:href="#g" transform="matrix(9.9626 0 0 -9.9626 189.386 89.49)"/><use xlink:href="#e" transform="matrix(6.9738 0 0 -6.9738 193.89 90.876)"/><use xlink:href="#f" transform="matrix(6.9738 0 0 -6.9738 200.122 89.3)"/><use xlink:href="#c" transform="matrix(6.9738 0 0 -6.9738 206.355 90.876)"/><path stroke-width=".399" stroke-miterlimit="10" fill="none" stroke="#000" d="M283.93 88.4c0-10.221-8.285-18.506-18.506-18.506-10.22 0-18.506 8.285-18.506 18.505 0 10.221 8.286 18.506 18.506 18.506S283.93 98.62 283.93 88.4zm-18.506 0"/><use xlink:href="#g" transform="matrix(9.9626 0 0 -9.9626 260.395 89.906)"/><use xlink:href="#e" transform="matrix(6.9738 0 0 -6.9738 264.9 91.291)"/><path stroke-width=".399" stroke-miterlimit="10" fill="none" stroke="#000" d="M38.35 19.337h24.761"/><path d="M66.697 19.337c-1.062-.2-2.789-.797-3.985-1.494v2.988c1.196-.697 2.923-1.295 3.985-1.494"/><path stroke-width=".399" stroke-miterlimit="10" fill="none" stroke="#000" d="M105.049 19.337h24.76"/><path d="M133.396 19.337c-1.063-.2-2.79-.797-3.985-1.494v2.988c1.195-.697 2.922-1.295 3.985-1.494"/><path stroke-width=".399" stroke-miterlimit="10" fill="none" stroke="#000" d="M153.719 19.337h24.76"/><path d="M182.066 19.337c-1.063-.2-2.79-.797-3.985-1.494v2.988c1.195-.697 2.922-1.295 3.985-1.494"/><path stroke-width=".399" stroke-miterlimit="10" fill="none" stroke="#000" d="M220.742 19.337h24.76"/><path d="M249.089 19.337c-1.063-.2-2.79-.797-3.986-1.494v2.988c1.196-.697 2.923-1.295 3.986-1.494"/><path stroke-width=".399" stroke-miterlimit="10" fill="none" stroke="#000" d="M19.175 69.694V42.1"/><path d="M19.175 38.513c-.2 1.062-.797 2.79-1.494 3.985h2.988c-.697-1.196-1.295-2.923-1.494-3.985"/><path stroke-width=".399" stroke-miterlimit="10" fill="none" stroke="#000" d="M85.187 69.697l.376-27.6"/><path d="M85.612 38.51c-.214 1.06-.835 2.779-1.549 3.965l2.989.04c-.681-1.205-1.255-2.94-1.44-4.005"/><path stroke-width=".399" stroke-miterlimit="10" fill="none" stroke="#000" d="M200.03 69.548l.747-27.296"/><path d="M200.875 38.667c-.228 1.056-.873 2.766-1.603 3.942l2.988.082c-.665-1.214-1.215-2.957-1.385-4.024"/><path stroke-width=".399" stroke-miterlimit="10" fill="none" stroke="#000" d="M266.193 69.711l1.136-27.632"/><path d="M267.477 38.496c-.243 1.053-.911 2.754-1.657 3.92l2.986.123c-.647-1.223-1.174-2.973-1.33-4.043"/></svg>