<svg xmlns="http://www.w3.org/2000/svg" xmlns:xlink="http://www.w3.org/1999/xlink" width="383.249" height="51.567" viewBox="0 0 287.437 38.675"><path stroke-width=".399" stroke-miterlimit="10" fill="none" stroke="#000" d="M38.151 19.337c0-10.48-8.495-18.976-18.976-18.976C8.695.36.199 8.856.199 19.337c0 10.48 8.495 18.976 18.976 18.976 10.48 0 18.976-8.495 18.976-18.976zm-18.976 0"/><symbol id="a"><path d="M.458.411L.374.61.369.623c0 .006.017.025.059.029.01.001.02.002.02.019 0 .012-.012.012-.015.012L.307.68.195.683c-.006 0-.018 0-.018-.02C.177.652.187.652.2.652.26.652.266.642.275.62L.393.341.182.114.169.103A.202.202 0 00.022.031C.009.03 0 .03 0 .011 0 .01 0 0 .013 0l.094.003L.219 0c.006 0 .018 0 .018.02 0 .01-.01.011-.012.011-.009.001-.04.003-.04.031 0 .016.015.032.027.045l.102.108.09.098.101-.239L.51.06C.51.052.491.035.452.031.441.03.432.029.432.012.432 0 .443 0 .447 0l.126.003L.684 0c.007 0 .019 0 .019.019 0 .012-.01.012-.018.012C.618.032.616.035.599.075.56.168.493.324.47.384c.068.07.173.189.205.217a.204.204 0 00.127.051c.013.001.022.001.022.02 0 .001 0 .011-.013.011L.717.68.606.683C.6.683.587.683.587.663c0-.007.005-.01.012-.011.009-.001.04-.003.04-.031C.639.607.628.594.62.585L.458.411z"/></symbol><use xlink:href="#a" transform="matrix(9.9626 0 0 -9.9626 13.083 21.994)"/><symbol id="b"><path d="M.464.339c0 .11-.013.189-.059.259a.208.208 0 01-.173.086C0 .684 0 .411 0 .339 0 .267 0 0 .232 0s.232.267.232.339M.232.028C.186.028.125.055.105.137.091.196.091.278.091.352c0 .073 0 .149.015.204.021.079.085.1.126.1A.129.129 0 00.356.565.813.813 0 00.373.352c0-.074 0-.148-.013-.211C.34.05.272.028.232.028z"/></symbol><use xlink:href="#b" transform="matrix(6.9738 0 0 -6.9738 21.43 23.627)"/><path stroke-width=".399" stroke-miterlimit="10" fill="none" stroke="#000" d="M104.85 19.337c0-10.48-8.496-18.976-18.977-18.976-10.48 0-18.976 8.495-18.976 18.976 0 10.48 8.496 18.976 18.976 18.976 10.48 0 18.977-8.495 18.977-18.976zm-18.977 0"/><use xlink:href="#a" transform="matrix(9.9626 0 0 -9.9626 79.78 21.994)"/><symbol id="c"><path d="M.226.636c0 .027-.002.028-.03.028C.132.601.041.6 0 .6V.564c.024 0 .09 0 .145.028v-.51c0-.033 0-.046-.1-.046H.007V0l.178.004L.364 0v.036H.326c-.1 0-.1.013-.1.046v.554z"/></symbol><use xlink:href="#c" transform="matrix(6.9738 0 0 -6.9738 88.525 23.488)"/><symbol id="d"><path d="M.106.053a.053.053 0 01-.053.053A.053.053 0 010 .053C0 .024.024 0 .053 0c.029 0 .053.024.053.053z"/></symbol><use xlink:href="#d" transform="matrix(9.9626 0 0 -9.9626 137.77 19.863)"/><use xlink:href="#d" transform="matrix(9.9626 0 0 -9.9626 142.204 19.863)"/><use xlink:href="#d" transform="matrix(9.9626 0 0 -9.9626 146.628 19.863)"/><path stroke-width=".399" stroke-miterlimit="10" fill="none" stroke="#000" d="M220.542 19.337c0-10.57-8.568-19.139-19.138-19.139-10.57 0-19.139 8.569-19.139 19.139 0 10.57 8.569 19.139 19.139 19.139 10.57 0 19.138-8.569 19.138-19.139zm-19.138 0"/><use xlink:href="#a" transform="matrix(9.9626 0 0 -9.9626 189.307 21.579)"/><symbol id="e"><path d="M.443.605C.45.634.452.637.474.639l.06.001C.595.64.621.64.646.632.691.618.693.589.693.553c0-.016 0-.029-.007-.081L.684.461c0-.01.007-.015.017-.015.015 0 .017.009.019.025l.027.191c0 .014-.012.014-.03.014H.102c-.025 0-.027 0-.034-.021L.005.478C.004.474 0 .465 0 .46 0 .456.002.446.017.446.03.446.032.451.038.47c.058.16.091.17.243.17h.042C.353.64.354.639.354.63c0-.001 0-.006-.004-.021L.218.083C.209.046.206.036.101.036c-.036 0-.045 0-.045-.022C.056.011.058 0 .073 0l.086.003.086.001.09-.001L.419 0c.008 0 .023 0 .023.022 0 .014-.01.014-.041.014L.343.038C.309.041.307.045.307.057c0 .007 0 .009.004.023l.132.525z"/></symbol><use xlink:href="#e" transform="matrix(6.9738 0 0 -6.9738 197.592 23.073)"/><symbol id="f"><path d="M.636 0c.016 0 .04 0 .04.024 0 .025-.023.025-.04.025H.04c-.016 0-.04 0-.04-.024C0 0 .023 0 .04 0h.596z"/></symbol><use xlink:href="#f" transform="matrix(6.9738 0 0 -6.9738 203.823 21.497)"/><use xlink:href="#c" transform="matrix(6.9738 0 0 -6.9738 210.056 23.073)"/><path stroke-width=".399" stroke-miterlimit="10" fill="none" stroke="#000" d="M287.24 19.337c0-10.48-8.495-18.976-18.976-18.976-10.48 0-18.976 8.495-18.976 18.976 0 10.48 8.496 18.976 18.976 18.976 10.48 0 18.977-8.495 18.977-18.976zm-18.976 0"/><use xlink:href="#a" transform="matrix(9.9626 0 0 -9.9626 261.265 21.994)"/><use xlink:href="#e" transform="matrix(6.9738 0 0 -6.9738 269.55 23.488)"/><path stroke-width=".399" stroke-miterlimit="10" fill="none" stroke="#000" d="M38.35 19.337h24.761"/><path d="M66.697 19.337c-1.062-.2-2.789-.797-3.985-1.494v2.988c1.196-.697 2.923-1.295 3.985-1.494"/><path stroke-width=".399" stroke-miterlimit="10" fill="none" stroke="#000" d="M105.049 19.337h24.76"/><path d="M133.396 19.337c-1.063-.2-2.79-.797-3.985-1.494v2.988c1.195-.697 2.922-1.295 3.985-1.494"/><path stroke-width=".399" stroke-miterlimit="10" fill="none" stroke="#000" d="M153.719 19.337h24.76"/><path d="M182.066 19.337c-1.063-.2-2.79-.797-3.985-1.494v2.988c1.195-.697 2.922-1.295 3.985-1.494"/><path stroke-width=".399" stroke-miterlimit="10" fill="none" stroke="#000" d="M220.742 19.337h24.76"/><path d="M249.089 19.337c-1.063-.2-2.79-.797-3.986-1.494v2.988c1.196-.697 2.923-1.295 3.986-1.494"/></svg>