<svg xmlns="http://www.w3.org/2000/svg" xmlns:xlink="http://www.w3.org/1999/xlink" width="378.208" height="50.291" viewBox="0 0 283.656 37.718"><path stroke-width=".399" stroke-miterlimit="10" fill="none" stroke="#000" d="M37.21 18.859C37.21 8.639 28.927.353 18.706.353 8.485.353.199 8.638.199 18.86c0 10.22 8.285 18.506 18.506 18.506 10.22 0 18.506-8.285 18.506-18.506zm-18.505 0"/><symbol id="a"><path d="M.09.094c.054.058.083.083.119.114 0 .001.062.054.098.09a.474.474 0 01.117.145c0 .01-.009.01-.011.01C.406.453.403.451.398.442.368.394.347.378.323.378S.287.393.272.41C.253.433.236.453.203.453.128.453.082.36.082.339c0-.005.003-.011.012-.011.009 0 .011.005.013.011.019.046.077.047.085.047.021 0 .04-.007.063-.015C.295.356.306.356.332.356A1.501 1.501 0 00.193.225L.103.141A.479.479 0 010 .01C0 0 .01 0 .012 0c.008 0 .01.002.016.013.023.035.053.062.085.062.023 0 .033-.009.058-.038C.188.016.206 0 .235 0c.099 0 .157.127.157.154 0 .005-.004.01-.012.01C.371.164.369.158.366.151a.13.13 0 00-.12-.084C.226.067.208.073.187.08a.178.178 0 01-.07.017C.115.097.099.097.09.094z"/></symbol><use xlink:href="#a" transform="matrix(9.9626 0 0 -9.9626 14.582 20.367)"/><symbol id="b"><path d="M.464.339c0 .11-.013.189-.059.259a.208.208 0 01-.173.086C0 .684 0 .411 0 .339 0 .267 0 0 .232 0s.232.267.232.339M.232.028C.186.028.125.055.105.137.091.196.091.278.091.352c0 .073 0 .149.015.204.021.079.085.1.126.1A.129.129 0 00.356.565.813.813 0 00.373.352c0-.074 0-.148-.013-.211C.34.05.272.028.232.028z"/></symbol><use xlink:href="#b" transform="matrix(6.9738 0 0 -6.9738 19.15 21.89)"/><path stroke-width=".399" stroke-miterlimit="10" fill="none" stroke="#000" d="M102.968 18.859c0-10.22-8.285-18.506-18.506-18.506-10.22 0-18.506 8.285-18.506 18.506 0 10.22 8.285 18.506 18.506 18.506 10.22 0 18.506-8.285 18.506-18.506zm-18.506 0"/><use xlink:href="#a" transform="matrix(9.9626 0 0 -9.9626 80.338 20.367)"/><symbol id="c"><path d="M.226.636c0 .027-.002.028-.03.028C.132.601.041.6 0 .6V.564c.024 0 .09 0 .145.028v-.51c0-.033 0-.046-.1-.046H.007V0l.178.004L.364 0v.036H.326c-.1 0-.1.013-.1.046v.554z"/></symbol><use xlink:href="#c" transform="matrix(6.9738 0 0 -6.9738 85.303 21.751)"/><symbol id="d"><path d="M.106.053a.053.053 0 01-.053.053A.053.053 0 010 .053C0 .024.024 0 .053 0c.029 0 .053.024.053.053z"/></symbol><use xlink:href="#d" transform="matrix(9.9626 0 0 -9.9626 135.889 19.385)"/><use xlink:href="#d" transform="matrix(9.9626 0 0 -9.9626 140.322 19.385)"/><use xlink:href="#d" transform="matrix(9.9626 0 0 -9.9626 144.746 19.385)"/><path stroke-width=".399" stroke-miterlimit="10" fill="none" stroke="#000" d="M217.703 18.859c0-10.306-8.354-18.66-18.66-18.66-10.306 0-18.66 8.354-18.66 18.66 0 10.306 8.354 18.66 18.66 18.66 10.306 0 18.66-8.354 18.66-18.66zm-18.66 0"/><use xlink:href="#a" transform="matrix(9.9626 0 0 -9.9626 188.915 19.95)"/><symbol id="e"><path d="M.443.605C.45.634.452.637.474.639l.06.001C.595.64.621.64.646.632.691.618.693.589.693.553c0-.016 0-.029-.007-.081L.684.461c0-.01.007-.015.017-.015.015 0 .017.009.019.025l.027.191c0 .014-.012.014-.03.014H.102c-.025 0-.027 0-.034-.021L.005.478C.004.474 0 .465 0 .46 0 .456.002.446.017.446.03.446.032.451.038.47c.058.16.091.17.243.17h.042C.353.64.354.639.354.63c0-.001 0-.006-.004-.021L.218.083C.209.046.206.036.101.036c-.036 0-.045 0-.045-.022C.056.011.058 0 .073 0l.086.003.086.001.09-.001L.419 0c.008 0 .023 0 .023.022 0 .014-.01.014-.041.014L.343.038C.309.041.307.045.307.057c0 .007 0 .009.004.023l.132.525z"/></symbol><use xlink:href="#e" transform="matrix(6.9738 0 0 -6.9738 193.42 21.336)"/><symbol id="f"><path d="M.636 0c.016 0 .04 0 .04.024 0 .025-.023.025-.04.025H.04c-.016 0-.04 0-.04-.024C0 0 .023 0 .04 0h.596z"/></symbol><use xlink:href="#f" transform="matrix(6.9738 0 0 -6.9738 199.651 19.76)"/><use xlink:href="#c" transform="matrix(6.9738 0 0 -6.9738 205.885 21.336)"/><path stroke-width=".399" stroke-miterlimit="10" fill="none" stroke="#000" d="M283.46 18.859c0-10.22-8.285-18.506-18.506-18.506-10.22 0-18.506 8.285-18.506 18.506 0 10.22 8.286 18.506 18.506 18.506s18.506-8.285 18.506-18.506zm-18.506 0"/><use xlink:href="#a" transform="matrix(9.9626 0 0 -9.9626 259.924 20.367)"/><use xlink:href="#e" transform="matrix(6.9738 0 0 -6.9738 264.429 21.751)"/><path stroke-width=".399" stroke-miterlimit="10" fill="none" stroke="#000" d="M37.41 18.859h24.76"/><path d="M65.757 18.859c-1.063-.2-2.79-.797-3.985-1.494v2.988c1.195-.697 2.922-1.295 3.985-1.494"/><path stroke-width=".399" stroke-miterlimit="10" fill="none" stroke="#000" d="M103.167 18.859h24.76"/><path d="M131.514 18.859c-1.063-.2-2.79-.797-3.985-1.494v2.988c1.195-.697 2.922-1.295 3.985-1.494"/><path stroke-width=".399" stroke-miterlimit="10" fill="none" stroke="#000" d="M151.837 18.859h24.76"/><path d="M180.184 18.859c-1.063-.2-2.79-.797-3.985-1.494v2.988c1.195-.697 2.922-1.295 3.985-1.494"/><path stroke-width=".399" stroke-miterlimit="10" fill="none" stroke="#000" d="M217.902 18.859h24.76"/><path d="M246.25 18.859c-1.064-.2-2.79-.797-3.986-1.494v2.988c1.196-.697 2.922-1.295 3.985-1.494"/></svg>